<?xml version="1.0" encoding="UTF-8" standalone="no"?>
<svg
        xmlns:dc="http://purl.org/dc/elements/1.1/"
        xmlns:cc="http://creativecommons.org/ns#"
        xmlns:rdf="http://www.w3.org/1999/02/22-rdf-syntax-ns#"
        xmlns="http://www.w3.org/2000/svg"
        version="1.1"
        id="svg6033"
        viewBox="0 0 425.19685 425.19685"
        height="120mm"
        width="120mm">
  <defs
          id="defs6035"/>
  <metadata
          id="metadata6038">
    <rdf:RDF>
      <cc:Work
              rdf:about="">
        <dc:format>image/svg+xml</dc:format>
        <dc:type
                rdf:resource="http://purl.org/dc/dcmitype/StillImage"/>
        <dc:title></dc:title>
      </cc:Work>
    </rdf:RDF>
  </metadata>
  <g
          transform="translate(0,-627.16535)"
          id="layer1">
    <path
            d="m 157.43685,998.96159 19.48056,0 c 7.00496,9.37941 18.16319,15.48111 30.76895,15.48111 l 64.3146,0"
            style="fill:none;stroke:#3c341f;stroke-width:11.83269405;stroke-linecap:butt;stroke-linejoin:miter;stroke-miterlimit:10;stroke-dasharray:none;stroke-opacity:1"
            id="path16"/>
    <path
            d="m 285.94384,875.2587 -14.16769,0 c -0.55612,-0.0158 -1.10834,-0.0788 -1.66446,-0.0788 l -26.18182,0 6.12539,-21.6775 0,-24.56466 c 0,-12.05752 -9.76985,-21.83526 -21.83921,-21.83526 l -7.27315,0 c -0.29566,0 -0.58769,0.0315 -0.89927,0.0432 l 0,33.41947 -8.46825,11.9313 -31.73529,34.67373 c -4.53587,4.78435 -7.84507,10.71648 -9.45037,17.33489 l -12.95287,0"
            style="fill:none;stroke:#3c341f;stroke-width:11.83269405;stroke-linecap:butt;stroke-linejoin:miter;stroke-miterlimit:10;stroke-dasharray:none;stroke-opacity:1"
            id="path18"/>
    <path
            d="m 262.79119,783.51194 0,28.6864 78.05238,0 0,23.53916 23.53129,-23.53916 23.32619,0 0,-88.69393 -89.75493,0"
            style="fill:none;stroke:#3c341f;stroke-width:11.83269405;stroke-linecap:butt;stroke-linejoin:miter;stroke-miterlimit:10;stroke-dasharray:none;stroke-opacity:1"
            id="path20"/>
    <path
            d="m 298.65215,643.37736 -196.89206,0 0,139.82298 36.76813,0 37.08759,37.0955 0,-37.0955 123.03634,0 0,-139.82298 z"
            style="fill:none;stroke:#3c341f;stroke-width:11.83269405;stroke-linecap:butt;stroke-linejoin:miter;stroke-miterlimit:10;stroke-dasharray:none;stroke-opacity:1"
            id="path22"/>
    <path
            d="m 242.19046,876.51297 c 3.81802,10.74802 4.38994,23.28279 0.8559,35.77023 -8.10144,28.61538 -34.69736,46.13567 -59.39615,39.15043"
            style="fill:none;stroke:#3c341f;stroke-width:11.83269405;stroke-linecap:butt;stroke-linejoin:miter;stroke-miterlimit:10;stroke-dasharray:none;stroke-opacity:1"
            id="path24"/>
    <path
            d="m 332.63564,892.77503 c 0,9.58841 -7.80564,17.36644 -17.42957,17.36644 l -48.80985,0 c -9.62787,0 -17.42955,-7.77803 -17.42955,-17.36644 l 0,0 c 0,-9.59632 7.80168,-17.37041 17.42955,-17.37041 l 48.80985,0 c 9.62393,0 17.42957,7.77409 17.42957,17.37041 l 0,0 z"
            style="fill:none;stroke:#3c341f;stroke-width:11.83269405;stroke-linecap:butt;stroke-linejoin:miter;stroke-miterlimit:10;stroke-dasharray:none;stroke-opacity:1"
            id="path26"/>
    <path
            d="m 323.33513,927.51187 c 0,9.59237 -7.80167,17.36644 -17.42954,17.36644 l -48.80593,0 c -9.62787,0 -17.4335,-7.77407 -17.4335,-17.36644 l 0,0 c 0,-9.59238 7.80563,-17.3704 17.4335,-17.3704 l 48.80593,0 c 9.62787,0 17.42954,7.77802 17.42954,17.3704 l 0,0 z"
            style="fill:none;stroke:#3c341f;stroke-width:11.83269405;stroke-linecap:butt;stroke-linejoin:miter;stroke-miterlimit:10;stroke-dasharray:none;stroke-opacity:1"
            id="path28"/>
    <path
            d="m 318.69279,962.25266 c 0,9.58842 -7.80563,17.3625 -17.43352,17.3625 l -48.80591,0 c -9.62787,0 -17.42954,-7.77408 -17.42954,-17.3625 l 0,0 c 0,-9.59633 7.80167,-17.37435 17.42954,-17.37435 l 48.80591,0 c 9.62789,0 17.43352,7.77802 17.43352,17.37435 l 0,0 z"
            style="fill:none;stroke:#3c341f;stroke-width:11.83269405;stroke-linecap:butt;stroke-linejoin:miter;stroke-miterlimit:10;stroke-dasharray:none;stroke-opacity:1"
            id="path30"/>
    <path
            d="m 304.74597,996.98549 c 0,9.59251 -7.80563,17.37431 -17.42954,17.37431 l -34.86307,0 c -9.62787,0 -17.42954,-7.7818 -17.42954,-17.37431 l 0,0 c 0,-9.58836 7.80167,-17.37033 17.42954,-17.37033 l 34.86307,0 c 9.62391,0 17.42954,7.78197 17.42954,17.37033 l 0,0 z"
            style="fill:none;stroke:#3c341f;stroke-width:11.83269405;stroke-linecap:butt;stroke-linejoin:miter;stroke-miterlimit:10;stroke-dasharray:none;stroke-opacity:1"
            id="path32"/>
    <path
            d="m 53.545807,897.37399 104.585233,0 0,121.62441 -16.96809,0"
            style="fill:none;stroke:#3c341f;stroke-width:11.83269405;stroke-linecap:butt;stroke-linejoin:miter;stroke-miterlimit:10;stroke-dasharray:none;stroke-opacity:1"
            id="path34"/>
    <path
            d="m 123.26798,1009.3232 c 0,5.3444 -4.33471,9.6829 -9.68309,9.6829 -5.34838,0 -9.67914,-4.3385 -9.67914,-9.6829 0,-5.3524 4.33076,-9.68321 9.67914,-9.68321 5.34838,0 9.68309,4.33081 9.68309,9.68321 z"
            style="fill:none;stroke:#3c341f;stroke-width:11.83269405;stroke-linecap:butt;stroke-linejoin:miter;stroke-miterlimit:10;stroke-dasharray:none;stroke-opacity:1"
            id="path36"/>
    <path
            d="m 36.502784,897.37399 104.585236,0 0,137.12031 -104.585236,0"
            style="fill:none;stroke:#3c341f;stroke-width:11.83269405;stroke-linecap:butt;stroke-linejoin:miter;stroke-miterlimit:10;stroke-dasharray:none;stroke-opacity:1"
            id="path38"/>
    <path
            d="m 141.45877,693.31527 117.48679,0"
            style="fill:none;stroke:#3c341f;stroke-width:11.83269405;stroke-linecap:butt;stroke-linejoin:miter;stroke-miterlimit:10;stroke-dasharray:none;stroke-opacity:1"
            id="path40"/>
    <path
            d="m 141.45877,714.29858 117.48679,0"
            style="fill:none;stroke:#3c341f;stroke-width:11.83269405;stroke-linecap:butt;stroke-linejoin:miter;stroke-miterlimit:10;stroke-dasharray:none;stroke-opacity:1"
            id="path42"/>
    <path
            d="m 141.45877,735.27794 117.48679,0"
            style="fill:none;stroke:#3c341f;stroke-width:11.83269405;stroke-linecap:butt;stroke-linejoin:miter;stroke-miterlimit:10;stroke-dasharray:none;stroke-opacity:1"
            id="path44"/>
  </g>
</svg>
