<?xml version="1.0" encoding="UTF-8" standalone="no"?>
<svg
        xmlns:dc="http://purl.org/dc/elements/1.1/"
        xmlns:cc="http://creativecommons.org/ns#"
        xmlns:rdf="http://www.w3.org/1999/02/22-rdf-syntax-ns#"
        xmlns="http://www.w3.org/2000/svg"
        version="1.1"
        id="svg5310"
        viewBox="0 0 425.19685 425.19685"
        height="120mm"
        width="120mm">
  <defs
          id="defs5312"/>
  <metadata
          id="metadata5315">
    <rdf:RDF>
      <cc:Work
              rdf:about="">
        <dc:format>image/svg+xml</dc:format>
        <dc:type
                rdf:resource="http://purl.org/dc/dcmitype/StillImage"/>
        <dc:title></dc:title>
      </cc:Work>
    </rdf:RDF>
  </metadata>
  <g
          transform="translate(0,-627.16535)"
          id="layer1">
    <path
            transform="translate(0,627.16535)"
            id="path6004"
            d=""
            style="opacity:0.97000002;fill:#3c341f;fill-opacity:1;stroke:#bd9d77;stroke-width:4.5137291;stroke-linejoin:round;stroke-miterlimit:4;stroke-dasharray:none;stroke-opacity:1"/>
    <path
            transform="translate(0,627.16535)"
            id="path6006"
            d=""
            style="opacity:0.97000002;fill:#3c341f;fill-opacity:1;stroke:#bd9d77;stroke-width:4.5137291;stroke-linejoin:round;stroke-miterlimit:4;stroke-dasharray:none;stroke-opacity:1"/>
    <path
            transform="translate(0,627.16535)"
            id="path6008"
            d=""
            style="opacity:0.97000002;fill:#3c341f;fill-opacity:1;stroke:#bd9d77;stroke-width:4.5137291;stroke-linejoin:round;stroke-miterlimit:4;stroke-dasharray:none;stroke-opacity:1"/>
    <path
            transform="translate(0,627.16535)"
            id="path6010"
            d=""
            style="opacity:0.97000002;fill:#3c341f;fill-opacity:1;stroke:#bd9d77;stroke-width:4.5137291;stroke-linejoin:round;stroke-miterlimit:4;stroke-dasharray:none;stroke-opacity:1"/>
    <path
            d="m 387.70257,1020.1305 c 0,9.5733 -7.75891,17.3282 -17.32824,17.3282 l -317.956388,0.3543 c -9.565351,0 -17.316309,-7.7632 -17.316309,-17.3244 l 0,-196.34053 c 0,-9.56917 7.750958,-13.30141 20.121455,-13.30141 l 317.956382,-0.35014 c 6.76419,0 14.5231,3.7281 14.5231,13.30554 l 0,196.32844 z"
            style="fill:none;stroke:#3c341f;stroke-width:11.93679428;stroke-linecap:butt;stroke-linejoin:miter;stroke-miterlimit:4;stroke-dasharray:none;stroke-opacity:1"
            id="path554"/>
    <path
            d="m 189.52792,925.63469 -110.856988,0 c -28.700033,0 -43.569299,-22.91068 -43.569299,-51.61851 l 0,-46.1954"
            style="fill:none;stroke:#3c341f;stroke-width:11.93679428;stroke-linecap:butt;stroke-linejoin:miter;stroke-miterlimit:4;stroke-dasharray:none;stroke-opacity:1"
            id="path556"/>
    <path
            d="m 387.70257,827.47446 0,46.18743 c 0,28.71197 -14.87324,51.9728 -43.57725,51.9728 l -108.22693,0"
            style="fill:none;stroke:#3c341f;stroke-width:11.93679428;stroke-linecap:butt;stroke-linejoin:miter;stroke-miterlimit:4;stroke-dasharray:none;stroke-opacity:1"
            id="path558"/>
    <path
            d="m 227.85299,893.09913 0,-79.62637"
            style="fill:none;stroke:#3c341f;stroke-width:11.93679428;stroke-linecap:butt;stroke-linejoin:miter;stroke-miterlimit:4;stroke-dasharray:none;stroke-opacity:1"
            id="path560"/>
    <path
            d="m 194.3663,893.09913 0,-79.62637"
            style="fill:none;stroke:#3c341f;stroke-width:11.93679428;stroke-linecap:butt;stroke-linejoin:miter;stroke-miterlimit:4;stroke-dasharray:none;stroke-opacity:1"
            id="path562"/>
    <path
            d="m 227.85299,1037.2878 0,-79.62653"
            style="fill:none;stroke:#3c341f;stroke-width:11.93679428;stroke-linecap:butt;stroke-linejoin:miter;stroke-miterlimit:4;stroke-dasharray:none;stroke-opacity:1"
            id="path564"/>
    <path
            d="m 194.3663,1037.2878 0,-79.62653"
            style="fill:none;stroke:#3c341f;stroke-width:11.93679428;stroke-linecap:butt;stroke-linejoin:miter;stroke-miterlimit:4;stroke-dasharray:none;stroke-opacity:1"
            id="path566"/>
    <path
            d="m 261.99222,758.71057 c 10.52427,0 19.08693,8.55884 19.08693,19.08295 l 0,35.87405"
            style="fill:none;stroke:#3c341f;stroke-width:11.93679428;stroke-linecap:butt;stroke-linejoin:miter;stroke-miterlimit:4;stroke-dasharray:none;stroke-opacity:1"
            id="path568"/>
    <path
            d="m 141.4863,813.66757 0,-35.87405 c 0,-10.52411 2.35951,-19.08295 12.88378,-19.08295"
            style="fill:none;stroke:#3c341f;stroke-width:11.93679428;stroke-linecap:butt;stroke-linejoin:miter;stroke-miterlimit:4;stroke-dasharray:none;stroke-opacity:1"
            id="path570"/>
    <path
            d="m 237.90775,953.59066 c 0,3.11948 -3.02399,5.65008 -6.74827,5.65008 l -40.10365,0 c -3.73622,0 -6.75225,-2.5306 -6.75225,-5.65008 l 0,-53.15438 c 0,-3.11153 3.01603,-5.64213 6.75225,-5.64213 l 40.10365,0 c 3.72428,0 6.74827,2.5306 6.74827,5.64213 l 0,53.15438 z"
            style="fill:none;stroke:#3c341f;stroke-width:11.93679428;stroke-linecap:butt;stroke-linejoin:miter;stroke-miterlimit:4;stroke-dasharray:none;stroke-opacity:1"
            id="path572"/>
    <path
            d="m 184.62588,942.79184 52.96791,0 0,-31.55324 -52.96791,0 0,31.55324 z"
            style="fill:none;stroke:#3c341f;stroke-width:11.93679428;stroke-linecap:butt;stroke-linejoin:miter;stroke-miterlimit:4;stroke-dasharray:none;stroke-opacity:1"
            id="path574"/>
    <path
            d="m 211.10964,957.25542 0,-23.3923"
            style="fill:none;stroke:#3c341f;stroke-width:11.93679428;stroke-linecap:butt;stroke-linejoin:miter;stroke-miterlimit:4;stroke-dasharray:none;stroke-opacity:1"
            id="path576"/>
    <path
            d="m 228.16334,963.6615 0,18.54182 c 0,6.02792 -5.84903,10.93412 -13.06681,10.93412 l -7.62363,0 c -7.22176,0 -13.07079,-4.9062 -13.07079,-10.93412 l 0,-18.54182"
            style="fill:none;stroke:#3c341f;stroke-width:11.93679428;stroke-linecap:butt;stroke-linejoin:miter;stroke-miterlimit:4;stroke-dasharray:none;stroke-opacity:1"
            id="path578"/>
    <path
            d="m 211.42398,882.24047 0,-9.39028"
            style="fill:none;stroke:#3c341f;stroke-width:11.93679428;stroke-linecap:butt;stroke-linejoin:miter;stroke-miterlimit:4;stroke-dasharray:none;stroke-opacity:1"
            id="path580"/>
    <path
            d="m 165.5469,643.42915 0,15.17151 c -9.07992,6.79219 -14.96078,17.57509 -14.96078,29.75858 l 0,64.558 0.68835,14.26049 c 0,7.63573 6.19918,13.83077 13.83475,13.83077 7.63955,0 13.83474,-2.73751 13.83474,-10.36496 l 0,3.44575 c 0,7.63955 6.1952,13.83459 13.83077,13.83459 7.63557,0 13.83076,-6.19504 13.83076,-13.83459 l 0,6.91921 c 0,7.63573 6.1952,13.83076 13.83077,13.83076 7.64353,0 13.83076,-6.19503 13.83076,-13.83076 l 0,-7.78279 c 0,6.52544 6.53739,13.3135 14.43955,13.3135 7.90215,0 14.30027,-6.42581 14.30027,-14.30824 l 0.0796,-59.11896 0.28649,6.81607 0,28.58051 c 0,11.67036 9.44598,21.12016 21.1321,21.12016 l 7.03873,0 c 0.3024,0 -0.29062,-0.0318 0,-0.0477 l 0,-26.44398 c -0.0398,0 0.0477,0 0,-0.0318 l 0,-35.09004 -40.05192,-46.60124 c -4.6275,-4.38892 -10.38103,-7.58384 -16.7712,-9.14772 l 0,-8.84501"
            style="fill:none;stroke:#3c341f;stroke-width:11.93679428;stroke-linecap:butt;stroke-linejoin:miter;stroke-miterlimit:10;stroke-dasharray:none;stroke-opacity:1"
            id="path582"/>
  </g>
</svg>
